# xmcd
#
# Track frame offsets:
#	150
#	11468
#	22075
#	35330
#	44609
#	55948
#	66862
#	78954
#	90043
#	102032
#	117018
#	128554
#
# Disc length: 1886 seconds
#
# Revision: 0
# Processed by: cddbd v1.5.1PL0 Copyright (c) Steve Scherf et al.
# Submitted via: dBpowerAMP V4.0
#
DISCID=87075c0c
DTITLE=The Grapestompers - This One Goes To 12
DYEAR=2004
DGENRE=Rock and Roll
TTITLE0=Track01 I´ll Do It Every Time
TTITLE1=Track02 Kiss Me Big
TTITLE2=Track03 The Apartment Song
TTITLE3=Track04 Tupelo County Jail
TTITLE4=Track05 Blue Blue Day
TTITLE5=Track06 Big Big Love
TTITLE6=Track07 Marie Marie
TTITLE7=Track08 White Lightning
TTITLE8=Track09 Old River Blues
TTITLE9=Track10 What Could We Been
TTITLE10=Track11 Let The Teardrops Fall
TTITLE11=Track12 Ubangi Stomp
EXTD=
EXTT0=
EXTT1=
EXTT2=
EXTT3=
EXTT4=
EXTT5=
EXTT6=
EXTT7=
EXTT8=
EXTT9=
EXTT10=
EXTT11=
PLAYORDER=
